<svg viewBox="0 0 128 128" fill="none" xmlns="http://www.w3.org/2000/svg">
<rect width="128" height="128" rx="15" fill="#F03C2E"/>
<path d="M52.8281 17.5047C46.9781 18.2563 41.6359 20.2063 36.1719 23.5984C34.9938 24.3297 33.2266 25.3656 32.2109 25.8938C29.7125 27.2344 26.7875 29.1844 25.1828 30.6063C22.8672 32.6781 19.0078 37.1266 17.2 39.7875C15.0875 42.9156 13.6047 46.2266 12.6703 49.8625C11.9797 52.6859 11.7766 58.4953 12.2844 61.9688C13.5234 70.4797 15.8594 74.0953 22.0547 77.1016C26.0563 79.0719 30.6875 79.8031 35.6641 79.2547C36.8625 79.1328 36.9031 79.1531 37.4719 79.8031C39.5641 82.1797 43.7891 84.3531 48.0547 85.2063C50.7969 85.7547 55.0422 86.2219 57.6828 86.2422L60.2016 86.2828L61.1156 87.7859C63.2484 91.3 65.4828 93.6156 69.9719 96.9875C73.3641 99.5266 75.0703 101.213 75.8625 102.838C76.5531 104.259 77 106.372 77 108.322C77 110.17 77.3453 110.719 78.4828 110.719C79.6813 110.698 86.1406 109.195 86.4656 108.85C86.6891 108.647 86.7906 108.2 86.7906 107.631C86.7703 106.798 85.6328 96.3984 85.4297 95.2406C85.3281 94.5906 85.2266 94.6313 88.2734 94.2656C99.7906 92.9047 105.397 87.1156 105.986 75.9641L106.108 73.7906L107.286 73.5672C108.728 73.2828 110.252 72.2063 112.202 70.0938C113.827 68.3469 115.167 65.7672 115.675 63.4516C116.142 61.3391 116.102 57.7438 115.573 55.2047C114.538 50.1063 111.43 44.3578 107.408 40.1125C106.088 38.7109 105.377 37.7563 105.052 36.9844C102.98 32.0891 100.055 28.1078 96.6219 25.5688C92.6813 22.6438 87.1563 20.9375 81.5906 20.9375C79.9047 20.9375 79.0922 20.7953 75.7406 19.9219C67.9203 17.9109 63.5531 17.2609 57.8453 17.3016C55.8141 17.3219 53.5594 17.4031 52.8281 17.5047Z" fill="white"/>
<path d="M48.7342 28.7342L47 30.4896L51.4413 34.9308L55.8825 39.3721L55.671 40.1123C55.3538 41.1909 55.4172 42.6501 55.7979 43.771C56.1786 44.8707 57.4475 46.4146 58.5261 47.0914L59.2663 47.5566V58.6386V69.6995L58.6953 70.0167C57.6379 70.5666 56.3266 72.0893 55.8614 73.3159C54.6982 76.3613 56.1363 79.7029 59.2029 81.141C60.4507 81.7332 62.8193 81.712 64.1305 81.1198C67.3029 79.6817 68.7198 75.8961 67.2394 72.8506C66.7107 71.7509 64.9977 69.9321 64.5324 69.9321C64.4266 69.9321 64.342 64.9621 64.342 58.8924V47.8316L68.5507 52.0402C72.4209 55.9104 72.7593 56.2911 72.5689 56.7564C72.2305 57.6869 72.3574 60.0133 72.8227 61.0496C73.3726 62.2974 74.5569 63.4817 75.8681 64.1796C76.7352 64.6238 77.2005 64.7295 78.5117 64.7083C80.394 64.7083 81.3245 64.3488 82.6781 63.101C85.2794 60.7324 85.3428 56.6506 82.8473 54.2185C81.3457 52.7593 78.977 52.0613 77.2217 52.5478L76.4603 52.7593L71.9979 48.2757L67.5355 43.8133L67.747 42.8828C68.6564 38.8645 64.7016 34.8674 60.6198 35.671L59.5836 35.8614L55.1423 31.4201C52.689 28.988 50.6587 27 50.5953 27C50.5319 27 49.707 27.7825 48.7342 28.7342Z" fill="#F03C2E"/>
</svg>
